# xmcd
#
# Track frame offsets:
#	150
#	23326
#	54392
#	84191
#	113279
#	169369
#
# Disc length: 2967 seconds
#
# Revision: 1
# Processed by: cddbd v1.5.2PL0 Copyright (c) Steve Scherf et al.
# Submitted via: audiograbber 1.83.01
#
DISCID=330b9506
DTITLE=Grateful Dead - 85-06-15 Greek Theatre, Berkeley CA
DYEAR=1900
DGENRE=
TTITLE0=China Cat Sunflower
TTITLE1=I Know You Rider
TTITLE2=Lost Sailor
TTITLE3=Saint Of Circumstance
TTITLE4=Terrapin Station
TTITLE5=Drums
EXTD=
EXTT0=
EXTT1=
EXTT2=
EXTT3=
EXTT4=
EXTT5=
PLAYORDER=
